<?xml version="1.0" standalone="no"?>
<!DOCTYPE svg PUBLIC "-//W3C//DTD SVG 20010904//EN"
 "http://www.w3.org/TR/2001/REC-SVG-20010904/DTD/svg10.dtd">
<svg version="1.0" xmlns="http://www.w3.org/2000/svg"
 width="896.000000pt" height="690.000000pt" viewBox="0 0 896.000000 690.000000"
 preserveAspectRatio="xMidYMid meet">

<g transform="translate(0.000000,690.000000) scale(0.100000,-0.100000)"
fill="#D0E7FF" stroke="none">
<path d="M5007 5930 c-72 -13 -120 -49 -154 -117 -25 -53 -28 -67 -27 -158 2
-143 65 -366 157 -555 40 -82 158 -202 245 -250 119 -66 127 -72 130 -112 2
-28 -2 -40 -20 -52 -32 -23 -50 -20 -121 15 -146 74 -285 203 -350 326 -43 84
-119 291 -148 407 -15 62 -26 86 -35 82 -7 -3 -48 -12 -91 -21 -120 -25 -292
-21 -553 14 -411 55 -427 56 -700 56 -284 -1 -398 -12 -640 -62 -241 -49 -577
-156 -815 -258 -523 -224 -934 -607 -1170 -1090 -307 -626 -279 -1297 78
-1883 199 -326 504 -614 767 -723 150 -63 416 -119 750 -159 96 -11 222 -27
280 -35 106 -15 220 -20 220 -10 0 18 -38 75 -78 118 -89 94 -220 139 -411
139 -126 0 -151 11 -151 66 0 53 29 67 146 70 169 6 327 -35 435 -113 57 -41
107 -52 469 -106 243 -36 564 -50 715 -30 83 11 210 38 227 48 4 2 -18 26 -50
52 -118 99 -187 187 -253 324 -53 110 -59 150 -29 182 44 46 98 25 119 -47 19
-65 76 -168 129 -234 84 -103 183 -178 340 -254 430 -211 705 -289 1089 -310
313 -17 714 25 700 74 -4 17 -145 84 -212 101 -33 9 -107 20 -165 25 -140 13
-197 31 -254 81 -59 52 -89 105 -115 199 -49 176 -6 298 147 410 95 71 208
127 441 219 222 88 279 118 541 286 312 199 422 254 600 295 106 24 185 48
215 63 15 8 -4 14 -96 33 -221 45 -287 82 -263 151 15 43 52 51 126 25 145
-50 331 -79 426 -67 45 6 62 14 99 48 140 129 315 448 299 546 -8 53 -97 224
-186 361 -207 314 -442 602 -701 857 -313 307 -555 472 -859 586 -93 35 -254
79 -336 92 l-42 6 29 -57 c41 -80 36 -124 -17 -144 -41 -16 -76 9 -97 69 -46
131 -294 317 -517 390 -54 17 -191 43 -210 40 -3 -1 -27 -5 -53 -9z m1634
-1279 c54 -34 83 -87 82 -152 -2 -140 -160 -223 -275 -145 -52 35 -71 70 -76
135 -4 49 0 67 19 101 51 90 162 117 250 61z"/>
</g>
</svg>
